<?xml version="1.0" encoding="utf-8" standalone="no"?>
<!DOCTYPE svg PUBLIC "-//W3C//DTD SVG 1.1//EN"
  "http://www.w3.org/Graphics/SVG/1.1/DTD/svg11.dtd">
<svg xmlns:xlink="http://www.w3.org/1999/xlink" width="502.11372pt" height="188.532697pt" viewBox="0 0 502.11372 188.532697" xmlns="http://www.w3.org/2000/svg" version="1.1">
 <metadata>
  <rdf:RDF xmlns:dc="http://purl.org/dc/elements/1.1/" xmlns:cc="http://creativecommons.org/ns#" xmlns:rdf="http://www.w3.org/1999/02/22-rdf-syntax-ns#">
   <cc:Work>
    <dc:type rdf:resource="http://purl.org/dc/dcmitype/StillImage"/>
    <dc:date>2024-09-07T14:24:28.467028</dc:date>
    <dc:format>image/svg+xml</dc:format>
    <dc:creator>
     <cc:Agent>
      <dc:title>Matplotlib v3.9.2, https://matplotlib.org/</dc:title>
     </cc:Agent>
    </dc:creator>
   </cc:Work>
  </rdf:RDF>
 </metadata>
 <defs>
  <style type="text/css">*{stroke-linejoin: round; stroke-linecap: butt}</style>
 </defs>
 <g id="figure_1">
  <g id="patch_1">
   <path d="M 0 188.532697 
L 502.11372 188.532697 
L 502.11372 0 
L 0 0 
L 0 188.532697 
z
" style="fill: none"/>
  </g>
  <g id="axes_1">
   <g id="patch_2">
    <path d="M 64.1675 147.105197 
L 472.00872 147.105197 
L 472.00872 7.2 
L 64.1675 7.2 
L 64.1675 147.105197 
z
" style="fill: none"/>
   </g>
   <g id="matplotlib.axis_1">
    <g id="xtick_1">
     <g id="line2d_1">
      <path d="M 64.1675 147.105197 
L 64.1675 7.2 
" clip-path="url(#p9bd73adae3)" style="fill: none; stroke-dasharray: 6.4,1.6,1,1.6; stroke-dashoffset: 0; stroke: #808080; stroke-opacity: 0.2"/>
     </g>
     <g id="line2d_2">
      <defs>
       <path id="m9e66788ace" d="M 0 0 
L 0 3.5 
" style="stroke: #000000; stroke-width: 0.8"/>
      </defs>
      <g>
       <use xlink:href="#m9e66788ace" x="64.1675" y="147.105197" style="stroke: #000000; stroke-width: 0.8"/>
      </g>
     </g>
     <g id="text_1">
      <!-- 0 -->
      <g transform="translate(60.35 163.223322) scale(0.12 -0.12)">
       <defs>
        <path id="DejaVuSans-30" d="M 2034 4250 
Q 1547 4250 1301 3770 
Q 1056 3291 1056 2328 
Q 1056 1369 1301 889 
Q 1547 409 2034 409 
Q 2525 409 2770 889 
Q 3016 1369 3016 2328 
Q 3016 3291 2770 3770 
Q 2525 4250 2034 4250 
z
M 2034 4750 
Q 2819 4750 3233 4129 
Q 3647 3509 3647 2328 
Q 3647 1150 3233 529 
Q 2819 -91 2034 -91 
Q 1250 -91 836 529 
Q 422 1150 422 2328 
Q 422 3509 836 4129 
Q 1250 4750 2034 4750 
z
" transform="scale(0.015625)"/>
       </defs>
       <use xlink:href="#DejaVuSans-30"/>
      </g>
     </g>
    </g>
    <g id="xtick_2">
     <g id="line2d_3">
      <path d="M 145.735744 147.105197 
L 145.735744 7.2 
" clip-path="url(#p9bd73adae3)" style="fill: none; stroke-dasharray: 6.4,1.6,1,1.6; stroke-dashoffset: 0; stroke: #808080; stroke-opacity: 0.2"/>
     </g>
     <g id="line2d_4">
      <g>
       <use xlink:href="#m9e66788ace" x="145.735744" y="147.105197" style="stroke: #000000; stroke-width: 0.8"/>
      </g>
     </g>
     <g id="text_2">
      <!-- 20000 -->
      <g transform="translate(126.648244 163.223322) scale(0.12 -0.12)">
       <defs>
        <path id="DejaVuSans-32" d="M 1228 531 
L 3431 531 
L 3431 0 
L 469 0 
L 469 531 
Q 828 903 1448 1529 
Q 2069 2156 2228 2338 
Q 2531 2678 2651 2914 
Q 2772 3150 2772 3378 
Q 2772 3750 2511 3984 
Q 2250 4219 1831 4219 
Q 1534 4219 1204 4116 
Q 875 4013 500 3803 
L 500 4441 
Q 881 4594 1212 4672 
Q 1544 4750 1819 4750 
Q 2544 4750 2975 4387 
Q 3406 4025 3406 3419 
Q 3406 3131 3298 2873 
Q 3191 2616 2906 2266 
Q 2828 2175 2409 1742 
Q 1991 1309 1228 531 
z
" transform="scale(0.015625)"/>
       </defs>
       <use xlink:href="#DejaVuSans-32"/>
       <use xlink:href="#DejaVuSans-30" x="63.623047"/>
       <use xlink:href="#DejaVuSans-30" x="127.246094"/>
       <use xlink:href="#DejaVuSans-30" x="190.869141"/>
       <use xlink:href="#DejaVuSans-30" x="254.492188"/>
      </g>
     </g>
    </g>
    <g id="xtick_3">
     <g id="line2d_5">
      <path d="M 227.303988 147.105197 
L 227.303988 7.2 
" clip-path="url(#p9bd73adae3)" style="fill: none; stroke-dasharray: 6.4,1.6,1,1.6; stroke-dashoffset: 0; stroke: #808080; stroke-opacity: 0.2"/>
     </g>
     <g id="line2d_6">
      <g>
       <use xlink:href="#m9e66788ace" x="227.303988" y="147.105197" style="stroke: #000000; stroke-width: 0.8"/>
      </g>
     </g>
     <g id="text_3">
      <!-- 40000 -->
      <g transform="translate(208.216488 163.223322) scale(0.12 -0.12)">
       <defs>
        <path id="DejaVuSans-34" d="M 2419 4116 
L 825 1625 
L 2419 1625 
L 2419 4116 
z
M 2253 4666 
L 3047 4666 
L 3047 1625 
L 3713 1625 
L 3713 1100 
L 3047 1100 
L 3047 0 
L 2419 0 
L 2419 1100 
L 313 1100 
L 313 1709 
L 2253 4666 
z
" transform="scale(0.015625)"/>
       </defs>
       <use xlink:href="#DejaVuSans-34"/>
       <use xlink:href="#DejaVuSans-30" x="63.623047"/>
       <use xlink:href="#DejaVuSans-30" x="127.246094"/>
       <use xlink:href="#DejaVuSans-30" x="190.869141"/>
       <use xlink:href="#DejaVuSans-30" x="254.492188"/>
      </g>
     </g>
    </g>
    <g id="xtick_4">
     <g id="line2d_7">
      <path d="M 308.872232 147.105197 
L 308.872232 7.2 
" clip-path="url(#p9bd73adae3)" style="fill: none; stroke-dasharray: 6.4,1.6,1,1.6; stroke-dashoffset: 0; stroke: #808080; stroke-opacity: 0.2"/>
     </g>
     <g id="line2d_8">
      <g>
       <use xlink:href="#m9e66788ace" x="308.872232" y="147.105197" style="stroke: #000000; stroke-width: 0.8"/>
      </g>
     </g>
     <g id="text_4">
      <!-- 60000 -->
      <g transform="translate(289.784732 163.223322) scale(0.12 -0.12)">
       <defs>
        <path id="DejaVuSans-36" d="M 2113 2584 
Q 1688 2584 1439 2293 
Q 1191 2003 1191 1497 
Q 1191 994 1439 701 
Q 1688 409 2113 409 
Q 2538 409 2786 701 
Q 3034 994 3034 1497 
Q 3034 2003 2786 2293 
Q 2538 2584 2113 2584 
z
M 3366 4563 
L 3366 3988 
Q 3128 4100 2886 4159 
Q 2644 4219 2406 4219 
Q 1781 4219 1451 3797 
Q 1122 3375 1075 2522 
Q 1259 2794 1537 2939 
Q 1816 3084 2150 3084 
Q 2853 3084 3261 2657 
Q 3669 2231 3669 1497 
Q 3669 778 3244 343 
Q 2819 -91 2113 -91 
Q 1303 -91 875 529 
Q 447 1150 447 2328 
Q 447 3434 972 4092 
Q 1497 4750 2381 4750 
Q 2619 4750 2861 4703 
Q 3103 4656 3366 4563 
z
" transform="scale(0.015625)"/>
       </defs>
       <use xlink:href="#DejaVuSans-36"/>
       <use xlink:href="#DejaVuSans-30" x="63.623047"/>
       <use xlink:href="#DejaVuSans-30" x="127.246094"/>
       <use xlink:href="#DejaVuSans-30" x="190.869141"/>
       <use xlink:href="#DejaVuSans-30" x="254.492188"/>
      </g>
     </g>
    </g>
    <g id="xtick_5">
     <g id="line2d_9">
      <path d="M 390.440476 147.105197 
L 390.440476 7.2 
" clip-path="url(#p9bd73adae3)" style="fill: none; stroke-dasharray: 6.4,1.6,1,1.6; stroke-dashoffset: 0; stroke: #808080; stroke-opacity: 0.2"/>
     </g>
     <g id="line2d_10">
      <g>
       <use xlink:href="#m9e66788ace" x="390.440476" y="147.105197" style="stroke: #000000; stroke-width: 0.8"/>
      </g>
     </g>
     <g id="text_5">
      <!-- 80000 -->
      <g transform="translate(371.352976 163.223322) scale(0.12 -0.12)">
       <defs>
        <path id="DejaVuSans-38" d="M 2034 2216 
Q 1584 2216 1326 1975 
Q 1069 1734 1069 1313 
Q 1069 891 1326 650 
Q 1584 409 2034 409 
Q 2484 409 2743 651 
Q 3003 894 3003 1313 
Q 3003 1734 2745 1975 
Q 2488 2216 2034 2216 
z
M 1403 2484 
Q 997 2584 770 2862 
Q 544 3141 544 3541 
Q 544 4100 942 4425 
Q 1341 4750 2034 4750 
Q 2731 4750 3128 4425 
Q 3525 4100 3525 3541 
Q 3525 3141 3298 2862 
Q 3072 2584 2669 2484 
Q 3125 2378 3379 2068 
Q 3634 1759 3634 1313 
Q 3634 634 3220 271 
Q 2806 -91 2034 -91 
Q 1263 -91 848 271 
Q 434 634 434 1313 
Q 434 1759 690 2068 
Q 947 2378 1403 2484 
z
M 1172 3481 
Q 1172 3119 1398 2916 
Q 1625 2713 2034 2713 
Q 2441 2713 2670 2916 
Q 2900 3119 2900 3481 
Q 2900 3844 2670 4047 
Q 2441 4250 2034 4250 
Q 1625 4250 1398 4047 
Q 1172 3844 1172 3481 
z
" transform="scale(0.015625)"/>
       </defs>
       <use xlink:href="#DejaVuSans-38"/>
       <use xlink:href="#DejaVuSans-30" x="63.623047"/>
       <use xlink:href="#DejaVuSans-30" x="127.246094"/>
       <use xlink:href="#DejaVuSans-30" x="190.869141"/>
       <use xlink:href="#DejaVuSans-30" x="254.492188"/>
      </g>
     </g>
    </g>
    <g id="xtick_6">
     <g id="line2d_11">
      <path d="M 472.00872 147.105197 
L 472.00872 7.2 
" clip-path="url(#p9bd73adae3)" style="fill: none; stroke-dasharray: 6.4,1.6,1,1.6; stroke-dashoffset: 0; stroke: #808080; stroke-opacity: 0.2"/>
     </g>
     <g id="line2d_12">
      <g>
       <use xlink:href="#m9e66788ace" x="472.00872" y="147.105197" style="stroke: #000000; stroke-width: 0.8"/>
      </g>
     </g>
     <g id="text_6">
      <!-- 100000 -->
      <g transform="translate(449.10372 163.223322) scale(0.12 -0.12)">
       <defs>
        <path id="DejaVuSans-31" d="M 794 531 
L 1825 531 
L 1825 4091 
L 703 3866 
L 703 4441 
L 1819 4666 
L 2450 4666 
L 2450 531 
L 3481 531 
L 3481 0 
L 794 0 
L 794 531 
z
" transform="scale(0.015625)"/>
       </defs>
       <use xlink:href="#DejaVuSans-31"/>
       <use xlink:href="#DejaVuSans-30" x="63.623047"/>
       <use xlink:href="#DejaVuSans-30" x="127.246094"/>
       <use xlink:href="#DejaVuSans-30" x="190.869141"/>
       <use xlink:href="#DejaVuSans-30" x="254.492188"/>
       <use xlink:href="#DejaVuSans-30" x="318.115234"/>
      </g>
     </g>
    </g>
    <g id="text_7">
     <!-- number of samples -->
     <g transform="translate(210.133735 178.837072) scale(0.12 -0.12)">
      <defs>
       <path id="DejaVuSans-6e" d="M 3513 2113 
L 3513 0 
L 2938 0 
L 2938 2094 
Q 2938 2591 2744 2837 
Q 2550 3084 2163 3084 
Q 1697 3084 1428 2787 
Q 1159 2491 1159 1978 
L 1159 0 
L 581 0 
L 581 3500 
L 1159 3500 
L 1159 2956 
Q 1366 3272 1645 3428 
Q 1925 3584 2291 3584 
Q 2894 3584 3203 3211 
Q 3513 2838 3513 2113 
z
" transform="scale(0.015625)"/>
       <path id="DejaVuSans-75" d="M 544 1381 
L 544 3500 
L 1119 3500 
L 1119 1403 
Q 1119 906 1312 657 
Q 1506 409 1894 409 
Q 2359 409 2629 706 
Q 2900 1003 2900 1516 
L 2900 3500 
L 3475 3500 
L 3475 0 
L 2900 0 
L 2900 538 
Q 2691 219 2414 64 
Q 2138 -91 1772 -91 
Q 1169 -91 856 284 
Q 544 659 544 1381 
z
M 1991 3584 
L 1991 3584 
z
" transform="scale(0.015625)"/>
       <path id="DejaVuSans-6d" d="M 3328 2828 
Q 3544 3216 3844 3400 
Q 4144 3584 4550 3584 
Q 5097 3584 5394 3201 
Q 5691 2819 5691 2113 
L 5691 0 
L 5113 0 
L 5113 2094 
Q 5113 2597 4934 2840 
Q 4756 3084 4391 3084 
Q 3944 3084 3684 2787 
Q 3425 2491 3425 1978 
L 3425 0 
L 2847 0 
L 2847 2094 
Q 2847 2600 2669 2842 
Q 2491 3084 2119 3084 
Q 1678 3084 1418 2786 
Q 1159 2488 1159 1978 
L 1159 0 
L 581 0 
L 581 3500 
L 1159 3500 
L 1159 2956 
Q 1356 3278 1631 3431 
Q 1906 3584 2284 3584 
Q 2666 3584 2933 3390 
Q 3200 3197 3328 2828 
z
" transform="scale(0.015625)"/>
       <path id="DejaVuSans-62" d="M 3116 1747 
Q 3116 2381 2855 2742 
Q 2594 3103 2138 3103 
Q 1681 3103 1420 2742 
Q 1159 2381 1159 1747 
Q 1159 1113 1420 752 
Q 1681 391 2138 391 
Q 2594 391 2855 752 
Q 3116 1113 3116 1747 
z
M 1159 2969 
Q 1341 3281 1617 3432 
Q 1894 3584 2278 3584 
Q 2916 3584 3314 3078 
Q 3713 2572 3713 1747 
Q 3713 922 3314 415 
Q 2916 -91 2278 -91 
Q 1894 -91 1617 61 
Q 1341 213 1159 525 
L 1159 0 
L 581 0 
L 581 4863 
L 1159 4863 
L 1159 2969 
z
" transform="scale(0.015625)"/>
       <path id="DejaVuSans-65" d="M 3597 1894 
L 3597 1613 
L 953 1613 
Q 991 1019 1311 708 
Q 1631 397 2203 397 
Q 2534 397 2845 478 
Q 3156 559 3463 722 
L 3463 178 
Q 3153 47 2828 -22 
Q 2503 -91 2169 -91 
Q 1331 -91 842 396 
Q 353 884 353 1716 
Q 353 2575 817 3079 
Q 1281 3584 2069 3584 
Q 2775 3584 3186 3129 
Q 3597 2675 3597 1894 
z
M 3022 2063 
Q 3016 2534 2758 2815 
Q 2500 3097 2075 3097 
Q 1594 3097 1305 2825 
Q 1016 2553 972 2059 
L 3022 2063 
z
" transform="scale(0.015625)"/>
       <path id="DejaVuSans-72" d="M 2631 2963 
Q 2534 3019 2420 3045 
Q 2306 3072 2169 3072 
Q 1681 3072 1420 2755 
Q 1159 2438 1159 1844 
L 1159 0 
L 581 0 
L 581 3500 
L 1159 3500 
L 1159 2956 
Q 1341 3275 1631 3429 
Q 1922 3584 2338 3584 
Q 2397 3584 2469 3576 
Q 2541 3569 2628 3553 
L 2631 2963 
z
" transform="scale(0.015625)"/>
       <path id="DejaVuSans-20" transform="scale(0.015625)"/>
       <path id="DejaVuSans-6f" d="M 1959 3097 
Q 1497 3097 1228 2736 
Q 959 2375 959 1747 
Q 959 1119 1226 758 
Q 1494 397 1959 397 
Q 2419 397 2687 759 
Q 2956 1122 2956 1747 
Q 2956 2369 2687 2733 
Q 2419 3097 1959 3097 
z
M 1959 3584 
Q 2709 3584 3137 3096 
Q 3566 2609 3566 1747 
Q 3566 888 3137 398 
Q 2709 -91 1959 -91 
Q 1206 -91 779 398 
Q 353 888 353 1747 
Q 353 2609 779 3096 
Q 1206 3584 1959 3584 
z
" transform="scale(0.015625)"/>
       <path id="DejaVuSans-66" d="M 2375 4863 
L 2375 4384 
L 1825 4384 
Q 1516 4384 1395 4259 
Q 1275 4134 1275 3809 
L 1275 3500 
L 2222 3500 
L 2222 3053 
L 1275 3053 
L 1275 0 
L 697 0 
L 697 3053 
L 147 3053 
L 147 3500 
L 697 3500 
L 697 3744 
Q 697 4328 969 4595 
Q 1241 4863 1831 4863 
L 2375 4863 
z
" transform="scale(0.015625)"/>
       <path id="DejaVuSans-73" d="M 2834 3397 
L 2834 2853 
Q 2591 2978 2328 3040 
Q 2066 3103 1784 3103 
Q 1356 3103 1142 2972 
Q 928 2841 928 2578 
Q 928 2378 1081 2264 
Q 1234 2150 1697 2047 
L 1894 2003 
Q 2506 1872 2764 1633 
Q 3022 1394 3022 966 
Q 3022 478 2636 193 
Q 2250 -91 1575 -91 
Q 1294 -91 989 -36 
Q 684 19 347 128 
L 347 722 
Q 666 556 975 473 
Q 1284 391 1588 391 
Q 1994 391 2212 530 
Q 2431 669 2431 922 
Q 2431 1156 2273 1281 
Q 2116 1406 1581 1522 
L 1381 1569 
Q 847 1681 609 1914 
Q 372 2147 372 2553 
Q 372 3047 722 3315 
Q 1072 3584 1716 3584 
Q 2034 3584 2315 3537 
Q 2597 3491 2834 3397 
z
" transform="scale(0.015625)"/>
       <path id="DejaVuSans-61" d="M 2194 1759 
Q 1497 1759 1228 1600 
Q 959 1441 959 1056 
Q 959 750 1161 570 
Q 1363 391 1709 391 
Q 2188 391 2477 730 
Q 2766 1069 2766 1631 
L 2766 1759 
L 2194 1759 
z
M 3341 1997 
L 3341 0 
L 2766 0 
L 2766 531 
Q 2569 213 2275 61 
Q 1981 -91 1556 -91 
Q 1019 -91 701 211 
Q 384 513 384 1019 
Q 384 1609 779 1909 
Q 1175 2209 1959 2209 
L 2766 2209 
L 2766 2266 
Q 2766 2663 2505 2880 
Q 2244 3097 1772 3097 
Q 1472 3097 1187 3025 
Q 903 2953 641 2809 
L 641 3341 
Q 956 3463 1253 3523 
Q 1550 3584 1831 3584 
Q 2591 3584 2966 3190 
Q 3341 2797 3341 1997 
z
" transform="scale(0.015625)"/>
       <path id="DejaVuSans-70" d="M 1159 525 
L 1159 -1331 
L 581 -1331 
L 581 3500 
L 1159 3500 
L 1159 2969 
Q 1341 3281 1617 3432 
Q 1894 3584 2278 3584 
Q 2916 3584 3314 3078 
Q 3713 2572 3713 1747 
Q 3713 922 3314 415 
Q 2916 -91 2278 -91 
Q 1894 -91 1617 61 
Q 1341 213 1159 525 
z
M 3116 1747 
Q 3116 2381 2855 2742 
Q 2594 3103 2138 3103 
Q 1681 3103 1420 2742 
Q 1159 2381 1159 1747 
Q 1159 1113 1420 752 
Q 1681 391 2138 391 
Q 2594 391 2855 752 
Q 3116 1113 3116 1747 
z
" transform="scale(0.015625)"/>
       <path id="DejaVuSans-6c" d="M 603 4863 
L 1178 4863 
L 1178 0 
L 603 0 
L 603 4863 
z
" transform="scale(0.015625)"/>
      </defs>
      <use xlink:href="#DejaVuSans-6e"/>
      <use xlink:href="#DejaVuSans-75" x="63.378906"/>
      <use xlink:href="#DejaVuSans-6d" x="126.757812"/>
      <use xlink:href="#DejaVuSans-62" x="224.169922"/>
      <use xlink:href="#DejaVuSans-65" x="287.646484"/>
      <use xlink:href="#DejaVuSans-72" x="349.169922"/>
      <use xlink:href="#DejaVuSans-20" x="390.283203"/>
      <use xlink:href="#DejaVuSans-6f" x="422.070312"/>
      <use xlink:href="#DejaVuSans-66" x="483.251953"/>
      <use xlink:href="#DejaVuSans-20" x="518.457031"/>
      <use xlink:href="#DejaVuSans-73" x="550.244141"/>
      <use xlink:href="#DejaVuSans-61" x="602.34375"/>
      <use xlink:href="#DejaVuSans-6d" x="663.623047"/>
      <use xlink:href="#DejaVuSans-70" x="761.035156"/>
      <use xlink:href="#DejaVuSans-6c" x="824.511719"/>
      <use xlink:href="#DejaVuSans-65" x="852.294922"/>
      <use xlink:href="#DejaVuSans-73" x="913.818359"/>
     </g>
    </g>
   </g>
   <g id="matplotlib.axis_2">
    <g id="ytick_1">
     <g id="line2d_13">
      <path d="M 64.1675 147.105197 
L 472.00872 147.105197 
" clip-path="url(#p9bd73adae3)" style="fill: none; stroke-dasharray: 6.4,1.6,1,1.6; stroke-dashoffset: 0; stroke: #808080; stroke-opacity: 0.2"/>
     </g>
     <g id="line2d_14">
      <defs>
       <path id="mb42aa0d5ba" d="M 0 0 
L -3.5 0 
" style="stroke: #000000; stroke-width: 0.8"/>
      </defs>
      <g>
       <use xlink:href="#mb42aa0d5ba" x="64.1675" y="147.105197" style="stroke: #000000; stroke-width: 0.8"/>
      </g>
     </g>
     <g id="text_8">
      <!-- 0.000 -->
      <g transform="translate(22.81375 151.664259) scale(0.12 -0.12)">
       <defs>
        <path id="DejaVuSans-2e" d="M 684 794 
L 1344 794 
L 1344 0 
L 684 0 
L 684 794 
z
" transform="scale(0.015625)"/>
       </defs>
       <use xlink:href="#DejaVuSans-30"/>
       <use xlink:href="#DejaVuSans-2e" x="63.623047"/>
       <use xlink:href="#DejaVuSans-30" x="95.410156"/>
       <use xlink:href="#DejaVuSans-30" x="159.033203"/>
       <use xlink:href="#DejaVuSans-30" x="222.65625"/>
      </g>
     </g>
    </g>
    <g id="ytick_2">
     <g id="line2d_15">
      <path d="M 64.1675 107.132283 
L 472.00872 107.132283 
" clip-path="url(#p9bd73adae3)" style="fill: none; stroke-dasharray: 6.4,1.6,1,1.6; stroke-dashoffset: 0; stroke: #808080; stroke-opacity: 0.2"/>
     </g>
     <g id="line2d_16">
      <g>
       <use xlink:href="#mb42aa0d5ba" x="64.1675" y="107.132283" style="stroke: #000000; stroke-width: 0.8"/>
      </g>
     </g>
     <g id="text_9">
      <!-- 0.002 -->
      <g transform="translate(22.81375 111.691346) scale(0.12 -0.12)">
       <use xlink:href="#DejaVuSans-30"/>
       <use xlink:href="#DejaVuSans-2e" x="63.623047"/>
       <use xlink:href="#DejaVuSans-30" x="95.410156"/>
       <use xlink:href="#DejaVuSans-30" x="159.033203"/>
       <use xlink:href="#DejaVuSans-32" x="222.65625"/>
      </g>
     </g>
    </g>
    <g id="ytick_3">
     <g id="line2d_17">
      <path d="M 64.1675 67.15937 
L 472.00872 67.15937 
" clip-path="url(#p9bd73adae3)" style="fill: none; stroke-dasharray: 6.4,1.6,1,1.6; stroke-dashoffset: 0; stroke: #808080; stroke-opacity: 0.2"/>
     </g>
     <g id="line2d_18">
      <g>
       <use xlink:href="#mb42aa0d5ba" x="64.1675" y="67.15937" style="stroke: #000000; stroke-width: 0.8"/>
      </g>
     </g>
     <g id="text_10">
      <!-- 0.004 -->
      <g transform="translate(22.81375 71.718433) scale(0.12 -0.12)">
       <use xlink:href="#DejaVuSans-30"/>
       <use xlink:href="#DejaVuSans-2e" x="63.623047"/>
       <use xlink:href="#DejaVuSans-30" x="95.410156"/>
       <use xlink:href="#DejaVuSans-30" x="159.033203"/>
       <use xlink:href="#DejaVuSans-34" x="222.65625"/>
      </g>
     </g>
    </g>
    <g id="ytick_4">
     <g id="line2d_19">
      <path d="M 64.1675 27.186457 
L 472.00872 27.186457 
" clip-path="url(#p9bd73adae3)" style="fill: none; stroke-dasharray: 6.4,1.6,1,1.6; stroke-dashoffset: 0; stroke: #808080; stroke-opacity: 0.2"/>
     </g>
     <g id="line2d_20">
      <g>
       <use xlink:href="#mb42aa0d5ba" x="64.1675" y="27.186457" style="stroke: #000000; stroke-width: 0.8"/>
      </g>
     </g>
     <g id="text_11">
      <!-- 0.006 -->
      <g transform="translate(22.81375 31.745519) scale(0.12 -0.12)">
       <use xlink:href="#DejaVuSans-30"/>
       <use xlink:href="#DejaVuSans-2e" x="63.623047"/>
       <use xlink:href="#DejaVuSans-30" x="95.410156"/>
       <use xlink:href="#DejaVuSans-30" x="159.033203"/>
       <use xlink:href="#DejaVuSans-36" x="222.65625"/>
      </g>
     </g>
    </g>
    <g id="text_12">
     <!-- $p_f$ -->
     <g transform="translate(16.29375 82.612598) rotate(-90) scale(0.12 -0.12)">
      <defs>
       <path id="DejaVuSans-Oblique-70" d="M 3175 2156 
Q 3175 2616 2975 2859 
Q 2775 3103 2400 3103 
Q 2144 3103 1911 2972 
Q 1678 2841 1497 2591 
Q 1319 2344 1212 1994 
Q 1106 1644 1106 1300 
Q 1106 863 1306 627 
Q 1506 391 1875 391 
Q 2147 391 2380 519 
Q 2613 647 2778 891 
Q 2956 1147 3065 1494 
Q 3175 1841 3175 2156 
z
M 1394 2969 
Q 1625 3272 1939 3428 
Q 2253 3584 2638 3584 
Q 3175 3584 3472 3232 
Q 3769 2881 3769 2247 
Q 3769 1728 3584 1258 
Q 3400 788 3053 416 
Q 2822 169 2531 39 
Q 2241 -91 1919 -91 
Q 1547 -91 1294 64 
Q 1041 219 916 525 
L 556 -1331 
L -19 -1331 
L 922 3500 
L 1497 3500 
L 1394 2969 
z
" transform="scale(0.015625)"/>
       <path id="DejaVuSans-Oblique-66" d="M 3059 4863 
L 2969 4384 
L 2419 4384 
Q 2106 4384 1964 4261 
Q 1822 4138 1753 3809 
L 1691 3500 
L 2638 3500 
L 2553 3053 
L 1606 3053 
L 1013 0 
L 434 0 
L 1031 3053 
L 481 3053 
L 563 3500 
L 1113 3500 
L 1159 3744 
Q 1278 4363 1576 4613 
Q 1875 4863 2516 4863 
L 3059 4863 
z
" transform="scale(0.015625)"/>
      </defs>
      <use xlink:href="#DejaVuSans-Oblique-70"/>
      <use xlink:href="#DejaVuSans-Oblique-66" transform="translate(63.476562 -16.40625) scale(0.7)"/>
     </g>
    </g>
   </g>
   <g id="line2d_21">
    <path d="M 68.245912 87.145827 
L 72.324324 87.145827 
L 76.402737 100.470131 
L 80.481149 107.132283 
L 84.559561 115.126866 
L 88.637973 113.794436 
L 92.716385 115.697908 
L 96.794798 117.125512 
L 100.87321 116.015153 
L 104.951622 115.126866 
L 109.030034 118.033987 
L 113.108446 118.79105 
L 117.186859 119.431641 
L 121.265271 119.98072 
L 125.343683 121.789018 
L 129.422095 122.122126 
L 133.500507 122.416044 
L 137.57892 119.346229 
L 141.657332 119.755309 
L 145.735744 121.122803 
L 149.814156 119.504852 
L 153.892569 117.125512 
L 157.970981 116.691024 
L 162.049393 117.125512 
L 166.127805 117.525241 
L 170.206217 118.662932 
L 174.28463 118.235871 
L 178.363042 117.125512 
L 182.441454 116.780918 
L 186.519866 117.791727 
L 190.598278 116.80315 
L 194.676691 117.125512 
L 198.755103 118.033987 
L 202.833515 118.889023 
L 206.911927 118.553116 
L 210.990339 118.79105 
L 215.068752 119.016123 
L 219.147164 119.229349 
L 223.225576 119.431641 
L 227.303988 118.624496 
L 231.3824 117.856724 
L 235.460813 117.125512 
L 239.539225 116.42831 
L 243.617637 115.762799 
L 247.696049 115.57101 
L 251.774461 115.387559 
L 255.852874 115.637159 
L 259.931286 115.043589 
L 264.009698 115.290021 
L 268.08811 113.927679 
L 272.166522 114.186327 
L 276.244935 114.435027 
L 280.323347 114.29724 
L 284.401759 114.534675 
L 288.480171 115.126866 
L 292.558583 114.627205 
L 296.636996 114.846354 
L 300.715408 114.713353 
L 304.79382 114.923614 
L 308.872232 114.793759 
L 312.950644 114.340514 
L 317.029057 113.90189 
L 321.107469 114.428926 
L 325.185881 114.939493 
L 329.264293 115.126866 
L 333.342706 114.702911 
L 337.421118 115.186527 
L 341.49953 114.774164 
L 345.577942 114.953071 
L 349.656354 115.126866 
L 353.734767 115.014266 
L 357.813179 115.459974 
L 361.891591 115.345896 
L 365.970003 114.964814 
L 370.048415 114.86038 
L 374.126828 115.284654 
L 378.20524 114.400086 
L 382.283652 114.563146 
L 386.362064 114.469084 
L 390.440476 114.377374 
L 394.518889 114.781421 
L 398.597301 114.931876 
L 402.675713 114.597105 
L 406.754125 114.984106 
L 410.832537 114.656597 
L 414.91095 114.801505 
L 418.989362 114.713353 
L 423.067774 115.081442 
L 427.146186 115.216693 
L 431.224598 115.126866 
L 435.303011 115.039014 
L 439.381423 114.735827 
L 443.459835 114.43916 
L 447.538247 114.361427 
L 451.616659 114.495715 
L 455.695072 114.419012 
L 459.773484 114.343892 
L 463.851896 114.678191 
L 467.930308 114.601969 
L 472.00872 114.927002 
" clip-path="url(#p9bd73adae3)" style="fill: none; stroke: #000000; stroke-width: 3; stroke-linecap: square"/>
   </g>
   <g id="line2d_22">
    <path d="M 68.245912 155.009263 
L 72.324324 135.091425 
L 76.402737 134.996595 
L 80.481149 134.815715 
L 84.559561 137.276154 
L 88.637973 134.42895 
L 92.716385 134.248033 
L 96.794798 134.078702 
L 100.87321 132.291236 
L 104.951622 130.786098 
L 109.030034 132.270468 
L 113.108446 132.242874 
L 117.186859 132.208764 
L 121.265271 132.170358 
L 125.343683 133.166437 
L 129.422095 133.065563 
L 133.500507 132.970113 
L 137.57892 130.221019 
L 141.657332 130.261824 
L 145.735744 131.10429 
L 149.814156 129.544047 
L 153.892569 127.347279 
L 157.970981 126.760148 
L 162.049393 126.912045 
L 166.127805 127.049975 
L 170.206217 127.821566 
L 174.28463 127.290404 
L 178.363042 126.185989 
L 182.441454 125.734733 
L 186.519866 126.447284 
L 190.598278 125.460114 
L 194.676691 125.600748 
L 198.755103 126.252571 
L 202.833515 126.866042 
L 206.911927 126.461935 
L 210.990339 126.556726 
L 215.068752 126.645666 
L 219.147164 126.729236 
L 223.225576 126.80787 
L 227.303988 126.013234 
L 231.3824 125.252364 
L 235.460813 124.52321 
L 239.539225 123.823871 
L 243.617637 123.152585 
L 247.696049 122.900507 
L 251.774461 122.657967 
L 255.852874 122.801488 
L 259.931286 122.199335 
L 264.009698 122.34514 
L 268.08811 121.059608 
L 272.166522 121.22045 
L 276.244935 121.374861 
L 280.323347 121.185744 
L 284.401759 121.334395 
L 288.480171 121.803051 
L 292.558583 121.294914 
L 296.636996 121.433014 
L 300.715408 121.256406 
L 304.79382 121.389922 
L 308.872232 121.218854 
L 312.950644 120.757188 
L 317.029057 120.308994 
L 321.107469 120.734411 
L 325.185881 121.146531 
L 329.264293 121.268033 
L 333.342706 120.837575 
L 337.421118 121.2297 
L 341.49953 120.811296 
L 345.577942 120.929716 
L 349.656354 121.044632 
L 353.734767 120.900527 
L 357.813179 121.264544 
L 361.891591 121.120934 
L 365.970003 120.734952 
L 370.048415 120.601209 
L 374.126828 120.950004 
L 378.20524 120.106095 
L 382.283652 120.218331 
L 386.362064 120.096463 
L 390.440476 119.977309 
L 394.518889 120.312276 
L 398.597301 120.416114 
L 402.675713 120.076444 
L 406.754125 120.398266 
L 410.832537 120.066138 
L 414.91095 120.1675 
L 418.989362 120.055681 
L 423.067774 120.363109 
L 427.146186 120.457518 
L 431.224598 120.345817 
L 435.303011 120.236321 
L 439.381423 119.929149 
L 443.459835 119.628063 
L 447.538247 119.528782 
L 451.616659 119.625266 
L 455.695072 119.527764 
L 459.773484 119.432068 
L 463.851896 119.714488 
L 467.930308 119.618641 
L 472.00872 119.893547 
" clip-path="url(#p9bd73adae3)" style="fill: none; stroke-dasharray: 7.4,3.2; stroke-dashoffset: 0; stroke: #0000ff; stroke-width: 2"/>
   </g>
   <g id="line2d_23">
    <path d="M 68.245912 19.28239 
L 72.324324 39.200228 
L 76.402737 65.943667 
L 80.481149 79.448851 
L 84.559561 92.977578 
L 88.637973 93.159921 
L 92.716385 97.147783 
L 96.794798 100.172322 
L 100.87321 99.73907 
L 104.951622 99.467634 
L 109.030034 103.797506 
L 113.108446 105.339226 
L 117.186859 106.654519 
L 121.265271 107.791081 
L 125.343683 110.4116 
L 129.422095 111.178689 
L 133.500507 111.861976 
L 137.57892 108.47144 
L 141.657332 109.248793 
L 145.735744 111.141316 
L 149.814156 109.465657 
L 153.892569 106.903745 
L 157.970981 106.6219 
L 162.049393 107.338978 
L 166.127805 108.000507 
L 170.206217 109.504297 
L 174.28463 109.181337 
L 178.363042 108.065035 
L 182.441454 107.827102 
L 186.519866 109.13617 
L 190.598278 108.146185 
L 194.676691 108.650276 
L 198.755103 109.815403 
L 202.833515 110.912003 
L 206.911927 110.644297 
L 210.990339 111.025374 
L 215.068752 111.38658 
L 219.147164 111.729463 
L 223.225576 112.055413 
L 227.303988 111.235758 
L 231.3824 110.461083 
L 235.460813 109.727814 
L 239.539225 109.032749 
L 243.617637 108.373013 
L 247.696049 108.241512 
L 251.774461 108.117151 
L 255.852874 108.472829 
L 259.931286 107.887844 
L 264.009698 108.234902 
L 268.08811 106.795749 
L 272.166522 107.152204 
L 276.244935 107.495194 
L 280.323347 107.408735 
L 284.401759 107.734954 
L 288.480171 108.450682 
L 292.558583 107.959495 
L 296.636996 108.259695 
L 300.715408 108.1703 
L 304.79382 108.457307 
L 308.872232 108.368663 
L 312.950644 107.92384 
L 317.029057 107.494786 
L 321.107469 108.123442 
L 325.185881 108.732455 
L 329.264293 108.985699 
L 333.342706 108.568247 
L 337.421118 109.143354 
L 341.49953 108.737032 
L 345.577942 108.976426 
L 349.656354 109.2091 
L 353.734767 109.128006 
L 357.813179 109.655404 
L 361.891591 109.570857 
L 365.970003 109.194676 
L 370.048415 109.119551 
L 374.126828 109.619304 
L 378.20524 108.694077 
L 382.283652 108.90796 
L 386.362064 108.841705 
L 390.440476 108.777439 
L 394.518889 109.250567 
L 398.597301 109.447639 
L 402.675713 109.117766 
L 406.754125 109.569946 
L 410.832537 109.247055 
L 414.91095 109.435511 
L 418.989362 109.371026 
L 423.067774 109.799775 
L 427.146186 109.975868 
L 431.224598 109.907916 
L 435.303011 109.841706 
L 439.381423 109.542504 
L 443.459835 109.250257 
L 447.538247 109.194073 
L 451.616659 109.366164 
L 455.695072 109.310261 
L 459.773484 109.255715 
L 463.851896 109.641893 
L 467.930308 109.585297 
L 472.00872 109.960457 
" clip-path="url(#p9bd73adae3)" style="fill: none; stroke-dasharray: 7.4,3.2; stroke-dashoffset: 0; stroke: #0000ff; stroke-width: 2"/>
   </g>
   <g id="patch_3">
    <path d="M 64.1675 147.105197 
L 64.1675 7.2 
" style="fill: none; stroke: #000000; stroke-width: 0.8; stroke-linejoin: miter; stroke-linecap: square"/>
   </g>
   <g id="patch_4">
    <path d="M 472.00872 147.105197 
L 472.00872 7.2 
" style="fill: none; stroke: #000000; stroke-width: 0.8; stroke-linejoin: miter; stroke-linecap: square"/>
   </g>
   <g id="patch_5">
    <path d="M 64.1675 147.105197 
L 472.00872 147.105197 
" style="fill: none; stroke: #000000; stroke-width: 0.8; stroke-linejoin: miter; stroke-linecap: square"/>
   </g>
   <g id="patch_6">
    <path d="M 64.1675 7.2 
L 472.00872 7.2 
" style="fill: none; stroke: #000000; stroke-width: 0.8; stroke-linejoin: miter; stroke-linecap: square"/>
   </g>
   <g id="legend_1">
    <g id="patch_7">
     <path d="M 377.574814 54.030937 
L 465.70872 54.030937 
Q 467.50872 54.030937 467.50872 52.230937 
L 467.50872 13.5 
Q 467.50872 11.7 465.70872 11.7 
L 377.574814 11.7 
Q 375.774814 11.7 375.774814 13.5 
L 375.774814 52.230937 
Q 375.774814 54.030937 377.574814 54.030937 
z
" style="fill: #ffffff; opacity: 0.8; stroke: #cccccc; stroke-linejoin: miter"/>
    </g>
    <g id="line2d_24">
     <path d="M 379.374814 18.988594 
L 388.374814 18.988594 
L 397.374814 18.988594 
" style="fill: none; stroke: #000000; stroke-width: 3; stroke-linecap: square"/>
    </g>
    <g id="text_13">
     <!-- mean -->
     <g transform="translate(404.574814 22.138594) scale(0.09 -0.09)">
      <use xlink:href="#DejaVuSans-6d"/>
      <use xlink:href="#DejaVuSans-65" x="97.412109"/>
      <use xlink:href="#DejaVuSans-61" x="158.935547"/>
      <use xlink:href="#DejaVuSans-6e" x="220.214844"/>
     </g>
    </g>
    <g id="line2d_25">
     <path d="M 379.374814 32.198906 
L 388.374814 32.198906 
L 397.374814 32.198906 
" style="fill: none; stroke-dasharray: 7.4,3.2; stroke-dashoffset: 0; stroke: #0000ff; stroke-width: 2"/>
    </g>
    <g id="text_14">
     <!-- lower ci limit -->
     <g transform="translate(404.574814 35.348906) scale(0.09 -0.09)">
      <defs>
       <path id="DejaVuSans-77" d="M 269 3500 
L 844 3500 
L 1563 769 
L 2278 3500 
L 2956 3500 
L 3675 769 
L 4391 3500 
L 4966 3500 
L 4050 0 
L 3372 0 
L 2619 2869 
L 1863 0 
L 1184 0 
L 269 3500 
z
" transform="scale(0.015625)"/>
       <path id="DejaVuSans-63" d="M 3122 3366 
L 3122 2828 
Q 2878 2963 2633 3030 
Q 2388 3097 2138 3097 
Q 1578 3097 1268 2742 
Q 959 2388 959 1747 
Q 959 1106 1268 751 
Q 1578 397 2138 397 
Q 2388 397 2633 464 
Q 2878 531 3122 666 
L 3122 134 
Q 2881 22 2623 -34 
Q 2366 -91 2075 -91 
Q 1284 -91 818 406 
Q 353 903 353 1747 
Q 353 2603 823 3093 
Q 1294 3584 2113 3584 
Q 2378 3584 2631 3529 
Q 2884 3475 3122 3366 
z
" transform="scale(0.015625)"/>
       <path id="DejaVuSans-69" d="M 603 3500 
L 1178 3500 
L 1178 0 
L 603 0 
L 603 3500 
z
M 603 4863 
L 1178 4863 
L 1178 4134 
L 603 4134 
L 603 4863 
z
" transform="scale(0.015625)"/>
       <path id="DejaVuSans-74" d="M 1172 4494 
L 1172 3500 
L 2356 3500 
L 2356 3053 
L 1172 3053 
L 1172 1153 
Q 1172 725 1289 603 
Q 1406 481 1766 481 
L 2356 481 
L 2356 0 
L 1766 0 
Q 1100 0 847 248 
Q 594 497 594 1153 
L 594 3053 
L 172 3053 
L 172 3500 
L 594 3500 
L 594 4494 
L 1172 4494 
z
" transform="scale(0.015625)"/>
      </defs>
      <use xlink:href="#DejaVuSans-6c"/>
      <use xlink:href="#DejaVuSans-6f" x="27.783203"/>
      <use xlink:href="#DejaVuSans-77" x="88.964844"/>
      <use xlink:href="#DejaVuSans-65" x="170.751953"/>
      <use xlink:href="#DejaVuSans-72" x="232.275391"/>
      <use xlink:href="#DejaVuSans-20" x="273.388672"/>
      <use xlink:href="#DejaVuSans-63" x="305.175781"/>
      <use xlink:href="#DejaVuSans-69" x="360.15625"/>
      <use xlink:href="#DejaVuSans-20" x="387.939453"/>
      <use xlink:href="#DejaVuSans-6c" x="419.726562"/>
      <use xlink:href="#DejaVuSans-69" x="447.509766"/>
      <use xlink:href="#DejaVuSans-6d" x="475.292969"/>
      <use xlink:href="#DejaVuSans-69" x="572.705078"/>
      <use xlink:href="#DejaVuSans-74" x="600.488281"/>
     </g>
    </g>
    <g id="line2d_26">
     <path d="M 379.374814 45.409219 
L 388.374814 45.409219 
L 397.374814 45.409219 
" style="fill: none; stroke-dasharray: 7.4,3.2; stroke-dashoffset: 0; stroke: #0000ff; stroke-width: 2"/>
    </g>
    <g id="text_15">
     <!-- upper ci limit -->
     <g transform="translate(404.574814 48.559219) scale(0.09 -0.09)">
      <use xlink:href="#DejaVuSans-75"/>
      <use xlink:href="#DejaVuSans-70" x="63.378906"/>
      <use xlink:href="#DejaVuSans-70" x="126.855469"/>
      <use xlink:href="#DejaVuSans-65" x="190.332031"/>
      <use xlink:href="#DejaVuSans-72" x="251.855469"/>
      <use xlink:href="#DejaVuSans-20" x="292.96875"/>
      <use xlink:href="#DejaVuSans-63" x="324.755859"/>
      <use xlink:href="#DejaVuSans-69" x="379.736328"/>
      <use xlink:href="#DejaVuSans-20" x="407.519531"/>
      <use xlink:href="#DejaVuSans-6c" x="439.306641"/>
      <use xlink:href="#DejaVuSans-69" x="467.089844"/>
      <use xlink:href="#DejaVuSans-6d" x="494.873047"/>
      <use xlink:href="#DejaVuSans-69" x="592.285156"/>
      <use xlink:href="#DejaVuSans-74" x="620.068359"/>
     </g>
    </g>
   </g>
  </g>
 </g>
 <defs>
  <clipPath id="p9bd73adae3">
   <rect x="64.1675" y="7.2" width="407.84122" height="139.905197"/>
  </clipPath>
 </defs>
</svg>
